{
    "asset" : {
        "generator" : "Khronos glTF Blender I/O v1.8.19",
        "version" : "2.0"
    },
    "scene" : 0,
    "scenes" : [
        {
            "name" : "Scene",
            "nodes" : [
                0,
                1,
                2,
                3,
                4,
                5
            ]
        }
    ],
    "nodes" : [
        {
            "mesh" : 0,
            "name" : "tostado",
            "scale" : [
                0.7938290238380432,
                0.09790938347578049,
                0.7938290238380432
            ],
            "translation" : [
                -1.9948482513427734,
                0.23078428208827972,
                -0.0992603600025177
            ]
        },
        {
            "mesh" : 1,
            "name" : "choco",
            "scale" : [
                0.7938290238380432,
                0.09790938347578049,
                0.7938290238380432
            ],
            "translation" : [
                0.013669010251760483,
                0.23078428208827972,
                -0.0992603600025177
            ]
        },
        {
            "mesh" : 2,
            "name" : "cacao",
            "scale" : [
                0.7917767763137817,
                0.0976562649011612,
                0.7917767763137817
            ],
            "translation" : [
                2.043327808380127,
                0.23078428208827972,
                -0.0992603600025177
            ]
        },
        {
            "mesh" : 3,
            "name" : "base",
            "scale" : [
                3.266522169113159,
                0.1700407862663269,
                2.041308641433716
            ],
            "translation" : [
                0.06330010294914246,
                0.19438029825687408,
                -0.08322174102067947
            ]
        },
        {
            "mesh" : 4,
            "name" : "base_metal",
            "scale" : [
                0.8183804154396057,
                0.10093750804662704,
                0.8183804154396057
            ],
            "translation" : [
                -1.9948482513427734,
                0.21902026236057281,
                -0.0992603600025177
            ]
        },
        {
            "mesh" : 5,
            "name" : "base-tapa",
            "scale" : [
                3.5,
                -0.018376287072896957,
                2.208437442779541
            ],
            "translation" : [
                0.06330010294914246,
                -0.0007337033748626709,
                0
            ]
        }
    ],
    "materials" : [
        {
            "doubleSided" : true,
            "name" : "prueba_tono",
            "pbrMetallicRoughness" : {}
        },
        {
            "doubleSided" : true,
            "name" : "Material",
            "pbrMetallicRoughness" : {}
        },
        {
            "doubleSided" : true,
            "name" : "base de metal",
            "pbrMetallicRoughness" : {}
        }
    ],
    "meshes" : [
        {
            "name" : "Cilindro.011",
            "primitives" : [
                {
                    "attributes" : {
                        "POSITION" : 0,
                        "NORMAL" : 1,
                        "TEXCOORD_0" : 2
                    },
                    "indices" : 3,
                    "material" : 0
                }
            ]
        },
        {
            "name" : "Cilindro.017",
            "primitives" : [
                {
                    "attributes" : {
                        "POSITION" : 4,
                        "NORMAL" : 5,
                        "TEXCOORD_0" : 6
                    },
                    "indices" : 3,
                    "material" : 0
                }
            ]
        },
        {
            "name" : "Cilindro.016",
            "primitives" : [
                {
                    "attributes" : {
                        "POSITION" : 7,
                        "NORMAL" : 8,
                        "TEXCOORD_0" : 9
                    },
                    "indices" : 3,
                    "material" : 0
                }
            ]
        },
        {
            "name" : "Cubo.002",
            "primitives" : [
                {
                    "attributes" : {
                        "POSITION" : 10,
                        "NORMAL" : 11,
                        "TEXCOORD_0" : 12
                    },
                    "indices" : 13,
                    "material" : 1
                }
            ]
        },
        {
            "name" : "Cilindro.005",
            "primitives" : [
                {
                    "attributes" : {
                        "POSITION" : 14,
                        "NORMAL" : 15,
                        "TEXCOORD_0" : 16
                    },
                    "indices" : 17,
                    "material" : 2
                }
            ]
        },
        {
            "name" : "Cubo.001",
            "primitives" : [
                {
                    "attributes" : {
                        "POSITION" : 18,
                        "NORMAL" : 19,
                        "TEXCOORD_0" : 20
                    },
                    "indices" : 21,
                    "material" : 1
                }
            ]
        }
    ],
    "accessors" : [
        {
            "bufferView" : 0,
            "componentType" : 5126,
            "count" : 192,
            "max" : [
                1,
                1,
                1
            ],
            "min" : [
                -1,
                -1,
                -1
            ],
            "type" : "VEC3"
        },
        {
            "bufferView" : 1,
            "componentType" : 5126,
            "count" : 192,
            "type" : "VEC3"
        },
        {
            "bufferView" : 2,
            "componentType" : 5126,
            "count" : 192,
            "type" : "VEC2"
        },
        {
            "bufferView" : 3,
            "componentType" : 5123,
            "count" : 372,
            "type" : "SCALAR"
        },
        {
            "bufferView" : 4,
            "componentType" : 5126,
            "count" : 192,
            "max" : [
                1,
                1,
                1
            ],
            "min" : [
                -1,
                -1,
                -1
            ],
            "type" : "VEC3"
        },
        {
            "bufferView" : 5,
            "componentType" : 5126,
            "count" : 192,
            "type" : "VEC3"
        },
        {
            "bufferView" : 6,
            "componentType" : 5126,
            "count" : 192,
            "type" : "VEC2"
        },
        {
            "bufferView" : 7,
            "componentType" : 5126,
            "count" : 192,
            "max" : [
                1,
                1,
                1
            ],
            "min" : [
                -1,
                -1,
                -1
            ],
            "type" : "VEC3"
        },
        {
            "bufferView" : 8,
            "componentType" : 5126,
            "count" : 192,
            "type" : "VEC3"
        },
        {
            "bufferView" : 9,
            "componentType" : 5126,
            "count" : 192,
            "type" : "VEC2"
        },
        {
            "bufferView" : 10,
            "componentType" : 5126,
            "count" : 624,
            "max" : [
                1,
                1,
                1
            ],
            "min" : [
                -1,
                -1,
                -1
            ],
            "type" : "VEC3"
        },
        {
            "bufferView" : 11,
            "componentType" : 5126,
            "count" : 624,
            "type" : "VEC3"
        },
        {
            "bufferView" : 12,
            "componentType" : 5126,
            "count" : 624,
            "type" : "VEC2"
        },
        {
            "bufferView" : 13,
            "componentType" : 5123,
            "count" : 1224,
            "type" : "SCALAR"
        },
        {
            "bufferView" : 14,
            "componentType" : 5126,
            "count" : 576,
            "max" : [
                5.934350967407227,
                1,
                1
            ],
            "min" : [
                -1,
                -1,
                -1
            ],
            "type" : "VEC3"
        },
        {
            "bufferView" : 15,
            "componentType" : 5126,
            "count" : 576,
            "type" : "VEC3"
        },
        {
            "bufferView" : 16,
            "componentType" : 5126,
            "count" : 576,
            "type" : "VEC2"
        },
        {
            "bufferView" : 17,
            "componentType" : 5123,
            "count" : 1116,
            "type" : "SCALAR"
        },
        {
            "bufferView" : 18,
            "componentType" : 5126,
            "count" : 90,
            "max" : [
                1,
                2.955538034439087,
                1
            ],
            "min" : [
                -1,
                -289.0450134277344,
                -1.168437123298645
            ],
            "type" : "VEC3"
        },
        {
            "bufferView" : 19,
            "componentType" : 5126,
            "count" : 90,
            "type" : "VEC3"
        },
        {
            "bufferView" : 20,
            "componentType" : 5126,
            "count" : 90,
            "type" : "VEC2"
        },
        {
            "bufferView" : 21,
            "componentType" : 5123,
            "count" : 156,
            "type" : "SCALAR"
        }
    ],
    "bufferViews" : [
        {
            "buffer" : 0,
            "byteLength" : 2304,
            "byteOffset" : 0
        },
        {
            "buffer" : 0,
            "byteLength" : 2304,
            "byteOffset" : 2304
        },
        {
            "buffer" : 0,
            "byteLength" : 1536,
            "byteOffset" : 4608
        },
        {
            "buffer" : 0,
            "byteLength" : 744,
            "byteOffset" : 6144
        },
        {
            "buffer" : 0,
            "byteLength" : 2304,
            "byteOffset" : 6888
        },
        {
            "buffer" : 0,
            "byteLength" : 2304,
            "byteOffset" : 9192
        },
        {
            "buffer" : 0,
            "byteLength" : 1536,
            "byteOffset" : 11496
        },
        {
            "buffer" : 0,
            "byteLength" : 2304,
            "byteOffset" : 13032
        },
        {
            "buffer" : 0,
            "byteLength" : 2304,
            "byteOffset" : 15336
        },
        {
            "buffer" : 0,
            "byteLength" : 1536,
            "byteOffset" : 17640
        },
        {
            "buffer" : 0,
            "byteLength" : 7488,
            "byteOffset" : 19176
        },
        {
            "buffer" : 0,
            "byteLength" : 7488,
            "byteOffset" : 26664
        },
        {
            "buffer" : 0,
            "byteLength" : 4992,
            "byteOffset" : 34152
        },
        {
            "buffer" : 0,
            "byteLength" : 2448,
            "byteOffset" : 39144
        },
        {
            "buffer" : 0,
            "byteLength" : 6912,
            "byteOffset" : 41592
        },
        {
            "buffer" : 0,
            "byteLength" : 6912,
            "byteOffset" : 48504
        },
        {
            "buffer" : 0,
            "byteLength" : 4608,
            "byteOffset" : 55416
        },
        {
            "buffer" : 0,
            "byteLength" : 2232,
            "byteOffset" : 60024
        },
        {
            "buffer" : 0,
            "byteLength" : 1080,
            "byteOffset" : 62256
        },
        {
            "buffer" : 0,
            "byteLength" : 1080,
            "byteOffset" : 63336
        },
        {
            "buffer" : 0,
            "byteLength" : 720,
            "byteOffset" : 64416
        },
        {
            "buffer" : 0,
            "byteLength" : 312,
            "byteOffset" : 65136
        }
    ],
    "buffers" : [
        {
            "byteLength" : 65448,
            "uri" : "data:application/octet-stream;base64,"
        }
    ]
}
