<?xml version="1.0" encoding="UTF-8"?><svg xmlns="http://www.w3.org/2000/svg" viewBox="0 0 236.99 64.14"><defs><style>.d{fill:#fff;}</style></defs><g id="a"/><g id="b"><g id="c"><g><path class="d" d="M95.68,31.84c-.62,.76-1.44,1.71-2.51,2.89-2.89,3.17-6.36,9.06-1.6,10.79,4.76,1.73,7.3-3.92,8.46-5.86,1.15-1.94,2.65-6,.81-7.93-1.69-1.79-4.31-.58-5.15,.13Z"/><path class="d" d="M228.03,14.41c-.52-.15-1.12-.27-1.83-.36,.58-.52,1.08-.97,1.48-1.32l.13-.12c1.34-1.2,1.79-3.12,1.13-4.79-.67-1.67-2.31-2.76-4.12-2.7l-5.78,.18c-3.18,.1-6.16,1.44-8.2,3.69l-.72,.8c-.91,1.01-1.79,1.98-2.66,2.96-7.39-.59-14.18-1.23-20.23-1.8-19.7-1.86-33.93-3.21-45.89-.61-12.19,2.65-16.89,7.81-17.38,8.39l-.18,.21-.15,.24c-1.06,1.68-1.08,3.57-.04,5.04,1,1.43,2.74,2.07,4.54,1.68,6.63-1.46,12.09-2.66,18.62-3.45-1.59,.91-2.78,2.37-3.29,4.13-.22,.78-.49,1.63-.8,2.54l-1.9-1.34s-.55-.37-1.1-.74l-.99-.66c-1.13-.77-2.57-.98-3.87-.56-1.33,.42-2.4,1.46-2.86,2.78-.82,2.34-2.35,5.14-3.95,7.58-.45-1.62-1.61-3.01-3.28-3.74-2.27-.99-4.8-.46-6.46,1.22,.24-.43,.45-.75,.6-.95,1.03-1.35,1.2-3.14,.44-4.66-.76-1.5-2.26-2.43-3.95-2.43h-.06c-2.02,.03-4.09,1.29-6.15,3.75-.39,.47-.78,.98-1.15,1.53-.11-.24-.21-.47-.33-.71-.75-1.49-1.93-2.34-3.32-2.83,.23-.58,.34-1.21,.28-1.87-.16-1.9-1.6-3.43-3.5-3.72-6.15-.93-12.63,.59-18.79,4.22-1.1-1.15-2.8-1.58-4.34-1.04-1.94,.68-4.63,1.79-6.43,3.21l-.51,.4-.35,.55c-.65,1.01-1.32,2.15-2,3.37-.89-2.77-2.46-5.03-4.09-6.79,1.63-.65,3.48-1.43,5.46-2.32,5.38-2.42,10.29-7.38,9.14-12.98-.87-4.25-4.87-6.55-8.07-7.73C66.85,1.06,60.67,.18,52.78,.03c-10.56-.19-16.64,.38-28.25,2.65-2.21,.43-3.63,2.39-3.29,4.55,.45,2.9,3.8,4.14,5.93,3.89,5.65-.66,14.05-1.05,22.46-.51-.75,.72-1.34,1.58-1.73,2.57-1.56,3.94-4.4,9.47-7.21,14.64-.08-.19-.17-.38-.28-.56-.61-1.02-2.43-3.48-6.16-4.29-.8-.17-2.68-.58-11.74,2.31-4.08,1.3-9.46,3.28-12.33,4.91-4,2.27-9.02,7.2-10.01,13.61-.53,3.45-.07,8.75,5.15,14.39,3.66,3.96,9.3,5.94,16.83,5.94,2.8,0,5.86-.28,9.18-.83,8.92-1.48,17.1-4.6,19.31-5.86,.48-.27,1.27-.64,2.19-1.07,2.14-1,5.02-2.35,7.78-4.26,.19,.55,.48,1.07,.86,1.54,.98,1.2,2.4,1.87,3.9,1.87,.39,0,.79-.05,1.19-.14,3.87-.92,6.27-2.23,7.56-4.1l.52-.76c4.46-6.51,6.79-9.92,10.16-12.65-3.46,5.49-4.05,9.88-1.75,13.12,1.77,2.48,4.22,4.04,7.07,4.5,.61,.1,1.22,.14,1.82,.14,3.35,0,6.51-1.4,8.53-2.88,1.14-.84,2.59-1.97,4-3.45,.51,2.17,1.75,5.4,5.04,6.28,.53,.14,1.04,.21,1.55,.21,2.9,0,5.47-2.16,7.72-4.63,.44,.65,.99,1.23,1.67,1.71,3.25,2.3,7.01,.68,8.95-.49,2.75-1.65,4.92-4.17,6.72-6.99-.76,1.72-1.43,3.21-1.93,4.32-.89,1.96-.13,4.23,1.77,5.27,.64,.35,1.33,.52,2.02,.52,1.36,0,2.69-.66,3.48-1.85,2.67-4.05,6.52-10.04,9.78-15.72,.77,1.08,1.95,2.1,3.42,2.35,.48,.1,.93,.15,1.35,.17-1.42,1.56-2.94,3.12-4.34,4.54-1.45,1.48-2.7,2.77-3.55,3.75-1.3,1.52-1.32,3.73-.05,5.26,.81,.98,1.99,1.49,3.19,1.49,.73,0,1.46-.19,2.13-.58,8.87-5.17,14.64-11.47,18.2-16.14,.73,.76,1.68,1.39,2.78,1.58,.48,.1,.93,.15,1.35,.17-1.42,1.56-2.94,3.12-4.34,4.54-1.45,1.48-2.7,2.77-3.55,3.75-1.3,1.52-1.32,3.73-.04,5.26,.81,.98,1.99,1.49,3.19,1.49,.73,0,1.46-.19,2.13-.58,9.32-5.43,15.21-12.11,18.72-16.83-2.53,6.75-2.27,12.04,.76,15.73,2.61,3.18,7.03,4.77,13.19,4.77,2.86,0,6.1-.34,9.7-1.03,1.9-.36,3.29-1.74,3.56-3.5,.26-1.73-.61-3.39-2.21-4.25-1.82-.97-4.87-1.17-6.94-1.04-4.47,.27-6.55-.53-7-1.37-.19-.35-.97-2.39,2.22-8.47,2.24-4.27,5.37-8.51,7.44-11.32,.37-.51,.71-.96,.99-1.36,.75-.82,1.59-1.71,2.51-2.65,1.03,.07,2.08,.15,3.14,.23,2.78,.2,5.5-.02,8.08-.67,4.4-1.1,4.32-4.32,4.26-4.96-.08-.87-.59-2.99-3.51-3.86ZM42.87,54.56c-10.95,3.42-28.5,6.98-36.99-2.38-8.59-9.46,2-18.26,7.68-21.2,6.07-3.14,17.53-6.85,19.76-6.36,2.23,.49,4.55,3.45,4.93,4.08,.09,.16,0,.35-.19,.38-3.36,.46-25.13,3.3-30.44,12.29-2.74,4.64,.5,8.36,2.96,10.1,3.49,2.46,10.68,3.26,14.27,2.79,5.23-.68,15.04-2.87,26.36-9.89,17.66-10.95,3.97-20.63-.62-22.33-4.72,6.5-10.23,13.3-13.47,17.21-.24,.29-.8,0-.62-.33,3.71-6.34,11.19-19.43,14.24-27.14,.59-1.48,2.23-2.44,4.15-2.44h2.54c.53,0,.92,.47,.73,.87-1.42,2.92-3.97,6.81-6.89,10.88,4.83-1.72,11.95-5.53,14.14-7.1,2.54-1.82,8.52-6.47-6.65-8.98-11.3-1.87-24.7-1.48-32.8-.54-.78,.09-2.22-.67-1.45-.82C35.75,1.45,41.62,.88,51.98,1.06c30.53,.56,24.39,12.04,15.77,15.93-4.93,2.23-9.05,3.71-10.78,4.31-.34,.12-.38,.57-.07,.76,2.34,1.43,8.86,6.16,7.83,13.94-1.25,9.46-17.9,17.31-21.86,18.55Zm-7.74-9.28c1.84,1.29,4.29,.97,5.7-.74,2.6-3.14,7.27-8.88,11.66-14.74,2.04,1.32,4.19,3.34,4.4,5.41,.23,2.33-2.22,5.22-6.91,8.13-11.64,7.22-21.34,9.08-25.53,9.56-1.55,.18-3.13,.14-4.67-.14-2.62-.46-6.14-1.51-7.98-3.61-.96-1.1-1.34-2.39-1.2-4.06,.44-5.04,13.98-9.87,26.81-11.64,.05,0,.09-.01,.14-.02-1.45,2.56-2.74,4.79-3.66,6.36-1.09,1.87-.57,4.23,1.22,5.48Zm35.06,1c-.87,1.26-3.37,2.08-5.27,2.53-.97,.23-1.77-.75-1.35-1.65,3.03-6.41,5.9-12.34,8.9-17,1.47-1.16,4.03-2.14,5.33-2.6,.23-.08,.43,.19,.27,.38-1.37,1.68-2.87,2.25-5.44,6.55-.17,.29-1.59,3.34-1.39,3.06,5.15-6.9,18.35-14.99,28.64-14.81,.24,0,.3,.35,.07,.43-1.87,.62-6.18,1.95-10.85,4.27-9.37,4.67-11.59,8.14-18.91,18.83Zm27.26,.55c-2.54,1.86-8.47,4.07-12-.89-3.53-4.96,8.65-17.16,8.65-17.16h0c.37-.36,.9-.69,1.59-.95,3.43-1.28,6.95-.38,7.77,1.26,4.82,9.55-3.47,15.89-6.01,17.74Zm29.62,.15c-6.19,3.71-7.62-3.67-7.05-6.5,.07-.34-.43,1.01-.68,1.64-1.78,4.45-10.96,13.89-12.56,2.4-1.36-9.79,6.34-15.5,8.65-15.53,.46,0,.73,.52,.45,.89-2.5,3.28-9.04,15.47-3.86,15.29,2.84-.1,5.1-4.28,8.38-9.62,1.18-1.91,4.15-.65,3.55,1.52-1.74,6.27-.25,9.36,4.65,4.18,2.91-3.08,5.05-7.18,6.61-11.59,.13-.38,.59-.53,.92-.3l.03,.02c1.31,.93,1.8,2.67,1.14,4.14-2.35,5.29-5.35,10.54-10.22,13.47Zm25.16-22.57c-2.43,6.47-10.8,19.05-14.66,24.68-.17,.25-.65,.05-.52-.22,2.49-5.32,7.49-16.31,9.35-22.67,.36-1.23,1.6-2.11,3.14-2.25l2.04-.19c.43-.04,.78,.3,.65,.64Zm18.82,5.17c-3,4.5-8.88,13.01-20.24,19.63-.27,.15-.59-.09-.39-.32,2.88-3.37,12.4-11.93,13.3-16.15,.14-.64-2.74,.16-4.01,.44-2.29,.62-3.33,1.33-5,.95-.5-.03-1.59-1.34-1.17-1.62,2.97-3.34,7.09-9.13,7.1-9.13,.57-.53,1.39-.91,2.15-1.12l3.42-1.03c.54-.15,.92,.53,.5,.89-2.07,2.58-4.06,4.33-6.37,7.37-.28,.27-.06,.73,.33,.69,2.95,.07,6.45-1.16,9.85-1.72,.63-.06,.9,.61,.55,1.14Zm-16.47-7.84c1.96-.12,4.04-.21,6.29-.27-.72,.33-1.53,.8-2.25,1.47-.28,.26-.45,.49-.56,.64-.25,.35-.66,.92-1.17,1.61-.07-.81-.38-1.59-.9-2.26-.39-.5-.87-.9-1.42-1.19Zm16.17,5.25l-.26,.03c-.1,.02-.19,.03-.29,.05h0c1.26-1.37,1.52-3.38,.62-5.05-.12-.22-.26-.43-.41-.62,3.03,.03,6.32,.11,9.93,.24-.65,.32-1.36,.76-2,1.35h0c-.28,.26-.45,.5-.56,.65-.56,.78-1.92,2.65-3.43,4.62-.93-.93-2.23-1.41-3.61-1.27Zm20.03,2.65c-3,4.5-8.88,13.01-20.24,19.63-.27,.15-.59-.09-.39-.32,2.88-3.37,12.4-11.93,13.3-16.15,.14-.64-2.59,.07-4.01,.44-2.29,.62-3.33,1.33-5,.95-.5-.03-1.59-1.34-1.17-1.62,2.97-3.34,7.09-9.13,7.1-9.13,.57-.53,1.39-.91,2.15-1.12l3.42-1.03c.54-.15,.92,.53,.5,.89-2.07,2.58-4.06,4.33-6.37,7.37-.28,.27-.06,.73,.33,.69,2.95,.07,6.45-1.16,9.85-1.72,.63-.06,.9,.61,.55,1.14Zm-.3-2.58l-.26,.03c-.1,.02-.19,.03-.29,.05h0c1.26-1.37,1.52-3.38,.62-5.05h0c2.89,.14,5.95,.31,9.19,.51-1.44,2.18-2.96,4.75-4.48,7.79-.11-.42-.27-.82-.5-1.19-.89-1.49-2.54-2.32-4.29-2.14Zm35.92-9.89c-2.24,.56-4.56,.73-6.86,.56-2.11-.15-4.15-.3-6.14-.44-1.26,1.26-2.48,2.54-3.6,3.77-4.42,6.17-23.79,30.22-.41,28.81,2.19-.13,4.17,.21,4.89,.6,.4,.21,.18,.47-.26,.55-10.95,2.1-26,2.27-19-15.11,3.48-8.64,7.08-14.27,10.96-19.11-49.76-3.24-59.61-1.16-78.6,3.01-.52,.11-.84-.19-.4-.88,0,0,3.99-4.67,15.27-7.12,15.07-3.28,34.41,.09,65.76,2.55,1.59-1.87,3.24-3.67,4.93-5.56l.02-.03c1.39-1.53,3.39-2.36,5.45-2.42l5.78-.18c.4-.01,.6,.48,.3,.75-1.57,1.4-5.06,4.51-8.68,8.01,2.81,.19,5.71,.37,8.71,.54,4.23,.23,3.7,1.25,1.88,1.71Z"/><path class="d" d="M234.79,9.08c-.08-.08-.18-.16-.3-.23,.24-.04,.43-.12,.55-.26,.12-.14,.18-.31,.18-.52,0-.16-.04-.31-.12-.44-.08-.13-.19-.22-.32-.27-.13-.05-.35-.07-.65-.07h-1.18v2.78h.56v-1.16h.11c.13,0,.22,.01,.28,.03,.06,.02,.12,.06,.17,.12s.15,.19,.3,.41l.41,.61h.67l-.34-.54c-.13-.22-.24-.37-.32-.45Zm-.87-.61h-.42v-.71h.44c.23,0,.36,0,.41,0,.09,.02,.16,.05,.21,.11,.05,.06,.07,.13,.07,.23,0,.08-.02,.15-.06,.21-.04,.06-.09,.09-.16,.12s-.24,.03-.51,.03Z"/><path class="d" d="M234.06,5.71c-1.62,0-2.94,1.32-2.94,2.94s1.32,2.94,2.94,2.94,2.94-1.32,2.94-2.94-1.32-2.94-2.94-2.94Zm0,5.36c-1.34,0-2.43-1.09-2.43-2.43s1.09-2.43,2.43-2.43,2.43,1.09,2.43,2.43-1.09,2.43-2.43,2.43Z"/></g></g></g></svg>